<?xml version="1.0" encoding="utf-8"?>
<!-- Generator: Adobe Illustrator 15.0.2, SVG Export Plug-In . SVG Version: 6.00 Build 0)  -->
<!DOCTYPE svg PUBLIC "-//W3C//DTD SVG 1.1//EN" "http://www.w3.org/Graphics/SVG/1.1/DTD/svg11.dtd">
<svg version="1.1" id="Layer_1" xmlns="http://www.w3.org/2000/svg" xmlns:xlink="http://www.w3.org/1999/xlink" x="0px" y="0px"
	 width="360px" height="360px" viewBox="0 0 360 360" enable-background="new 0 0 360 360" xml:space="preserve">
<path fill="#FFFFFF" d="M310.721,153.997h-29.773c2.177,8.412,3.463,17.219,3.463,26.299c0,58.15-47.116,105.242-105.229,105.242
	S73.951,238.446,73.951,180.296c0-9.08,1.299-17.887,3.463-26.299H47.652v144.702c0,7.249,5.863,13.161,13.137,13.161h236.783
	c7.273,0,13.148-5.912,13.148-13.161V153.997z M310.721,61.917c0-7.262-5.875-13.137-13.148-13.137H258.1
	c-7.248,0-13.148,5.875-13.148,13.137v39.484c0,7.248,5.9,13.137,13.148,13.137h39.473c7.273,0,13.148-5.889,13.148-13.137V61.917z
	 M179.181,114.538c-36.317,0-65.771,29.439-65.771,65.758c0,36.342,29.453,65.807,65.771,65.807
	c36.306,0,65.771-29.465,65.771-65.807C244.951,143.978,215.486,114.538,179.181,114.538 M310.721,351.32H47.652
	c-21.795,0-39.472-17.688-39.472-39.46V48.78c0-21.809,17.677-39.46,39.472-39.46h263.068c21.809,0,39.46,17.651,39.46,39.46v263.08
	C350.181,333.632,332.529,351.32,310.721,351.32"/>
</svg>
