<?xml version="1.0" encoding="utf-8"?>
<!-- Generator: Adobe Illustrator 15.0.2, SVG Export Plug-In . SVG Version: 6.00 Build 0)  -->
<!DOCTYPE svg PUBLIC "-//W3C//DTD SVG 1.1//EN" "http://www.w3.org/Graphics/SVG/1.1/DTD/svg11.dtd">
<svg version="1.1" id="Layer_1" xmlns="http://www.w3.org/2000/svg" xmlns:xlink="http://www.w3.org/1999/xlink" x="0px" y="0px"
	 width="360px" height="360px" viewBox="0 0 360 360" enable-background="new 0 0 360 360" xml:space="preserve">
<path fill="#FFFFFF" d="M350.731,73.093c-12.402,5.383-25.727,9.057-39.644,10.745c-0.103-0.245-0.205-0.491-0.328-0.747
	c14.757-8.626,26.157-22.37,31.765-38.805c-4.277,2.62-24.888,14.245-44.985,17.99c-13.12-14.388-32.011-23.424-53.01-23.424
	c-44.393,0-71.73,36.411-71.73,71.726c0,2.752,1.299,14.132,1.524,14.777c-59.63-1.29-112.516-29.984-146.562-73.987
	c-24.396,44.392,1.156,82.89,18.676,96.624c-10.172-0.174-19.853-2.364-28.664-6.201c1.862,34.148,26.566,62.209,59.098,69.188
	c-13.037,3.664-28.674,0.86-34.701-0.695c9.609,28.571,35.95,49.458,67.376,50.993c-48.107,35.346-99.98,31.743-100.809,31.733
	c30.485,18.267,66.159,29.021,104.278,28.776c139.721-0.9,211.458-124.909,202.944-213.888
	C331.247,100.764,343.609,88.392,350.731,73.093"/>
</svg>
